<?xml version="1.0" encoding="UTF-8" standalone="no"?>
<!-- Created with Inkscape (http://www.inkscape.org/) -->

<svg
   xmlns:dc="http://purl.org/dc/elements/1.1/"
   xmlns:cc="http://creativecommons.org/ns#"
   xmlns:rdf="http://www.w3.org/1999/02/22-rdf-syntax-ns#"
   xmlns:svg="http://www.w3.org/2000/svg"
   xmlns="http://www.w3.org/2000/svg"
   xmlns:sodipodi="http://sodipodi.sourceforge.net/DTD/sodipodi-0.dtd"
   xmlns:inkscape="http://www.inkscape.org/namespaces/inkscape"
   id="svg552"
   version="1.1"
   viewBox="0 0 56.935223 10.899388"
   height="10.899388mm"
   width="56.935223mm"
   inkscape:version="0.92.2 5c3e80d, 2017-08-06"
   sodipodi:docname="location.svg">
  <sodipodi:namedview
     inkscape:window-maximized="1"
     inkscape:window-y="1"
     inkscape:window-x="0"
     inkscape:window-height="811"
     inkscape:window-width="1440"
     showgrid="true"
     inkscape:current-layer="layer1"
     inkscape:document-units="mm"
     inkscape:cy="-367.58662"
     inkscape:cx="171.58908"
     inkscape:zoom="0.53273008"
     inkscape:pageshadow="2"
     inkscape:pageopacity="0.0"
     borderopacity="1.0"
     bordercolor="#666666"
     pagecolor="#ffffff"
     id="base"
     showguides="false"
     inkscape:guide-bbox="true"
     fit-margin-top="0"
     fit-margin-left="0"
     fit-margin-right="0"
     fit-margin-bottom="0"
     showborder="true">
    <inkscape:grid
       type="xygrid"
       id="grid9870"
       originx="-1.740021"
       originy="-285.48973" />
    <sodipodi:guide
       position="-8.3546042,-5.0314065"
       orientation="1,0"
       id="guide9872"
       inkscape:locked="false" />
    <sodipodi:guide
       position="88.218311,-5.0314065"
       orientation="0,1"
       id="guide9874"
       inkscape:locked="false" />
  </sodipodi:namedview>
  <defs
     id="defs546" />
  <metadata
     id="metadata549">
    <rdf:RDF>
      <cc:Work
         rdf:about="">
        <dc:format>image/svg+xml</dc:format>
        <dc:type
           rdf:resource="http://purl.org/dc/dcmitype/StillImage" />
        <dc:title></dc:title>
      </cc:Work>
    </rdf:RDF>
  </metadata>
  <g
     id="layer1"
     inkscape:groupmode="layer"
     inkscape:label="Layer 1"
     transform="translate(-1.740021,-0.61087627)">
    <path
       style="fill:#000000;stroke-width:0.11672227"
       d="m 6.8291932,11.263748 c -0.115989,-0.02988 -0.262929,-0.191193 -0.326535,-0.358481 -0.09281,-0.244113 -0.06846,-0.367971 0.123351,-0.627411 0.131447,-0.177788 0.238992,-0.3779042 0.238992,-0.444701 0,-0.066794 0.105052,-0.1214483 0.233446,-0.1214483 0.128394,0 0.233446,0.054651 0.233446,0.1214483 0,0.066794 0.107545,0.266913 0.238991,0.444701 0.194784,0.263464 0.216907,0.381331 0.119611,0.637247 -0.06566,0.172696 -0.16891,0.313992 -0.229445,0.313992 -0.06053,0 -0.180017,0.02002 -0.265513,0.04449 -0.0855,0.02446 -0.250351,0.02004 -0.366344,-0.0098 z M 2.2752022,9.4017252 c -0.0435,-0.043504 -0.07909,-1.6723516 -0.07909,-3.6196683 V 2.2414812 h 4.90402 4.9040248 l -0.03088,3.58921 -0.03088,3.5892098 -4.7940618,0.03046 C 4.5116002,9.467109 2.3186802,9.445241 2.2751782,9.401727 Z m 3.314834,-2.8325414 c 0.187655,-0.1876532 0.34119,-0.4502786 0.34119,-0.583611 0,-0.2130933 -0.07061,-0.2424235 -0.583613,-0.2424235 h -0.583612 v -0.583611 c 0,-0.513002 -0.02934,-0.5836116 -0.242424,-0.5836116 -0.133331,0 -0.395955,0.1535348 -0.583608,0.341188 -0.75187,0.7518698 -0.237421,1.993258 0.826032,1.993258 0.380253,0 0.558449,-0.073603 0.826035,-0.3411889 z m 5.0100788,0.107744 c 0,-0.2214733 -0.07782,-0.2334449 -1.5173878,-0.2334449 -1.439577,0 -1.517392,0.011972 -1.517392,0.2334449 0,0.221473 0.07782,0.2334449 1.517392,0.2334449 1.4395718,0 1.5173878,-0.011972 1.5173878,-0.2334449 z m 0,-1.1672227 c 0,-0.2214731 -0.07782,-0.2334447 -1.5173878,-0.2334447 -1.439577,0 -1.517392,0.011973 -1.517392,0.2334447 0,0.221473 0.07782,0.2334442 1.517392,0.2334442 1.4395718,0 1.5173878,-0.011973 1.5173878,-0.2334442 z M 6.6315592,4.8003926 c 0,-0.3134301 -0.61137,-0.9247996 -0.924802,-0.9247996 -0.213091,0 -0.242423,0.07061 -0.242423,0.5836116 v 0.5836111 h 0.583612 c 0.513002,0 0.583613,-0.029333 0.583613,-0.2424231 z M 10.600115,4.3424819 c 0,-0.221473 -0.07782,-0.2334442 -1.5173878,-0.2334442 -1.439577,0 -1.517392,0.011973 -1.517392,0.2334442 0,0.2214732 0.07782,0.2334448 1.517392,0.2334448 1.4395718,0 1.5173878,-0.011972 1.5173878,-0.2334448 z M 1.7761552,1.6118118 c -0.03485,-0.09084 -0.04655,-0.3408699 -0.02599,-0.5556223 l 0.03741,-0.39045884 h 5.310862 5.3108618 V 1.1909808 1.716231 L 7.1244122,1.746604 c -4.468922,0.025684 -5.294676,0.00487 -5.348268,-0.1347913 z"
       id="path9906"
       inkscape:connector-curvature="0" />
  </g>
</svg>
