<?xml version="1.0" encoding="UTF-8" standalone="no"?>
<!-- Created with Inkscape (http://www.inkscape.org/) -->

<svg
   xmlns:dc="http://purl.org/dc/elements/1.1/"
   xmlns:cc="http://creativecommons.org/ns#"
   xmlns:rdf="http://www.w3.org/1999/02/22-rdf-syntax-ns#"
   xmlns:svg="http://www.w3.org/2000/svg"
   xmlns="http://www.w3.org/2000/svg"
   xmlns:sodipodi="http://sodipodi.sourceforge.net/DTD/sodipodi-0.dtd"
   xmlns:inkscape="http://www.inkscape.org/namespaces/inkscape"
   id="svg552"
   version="1.1"
   viewBox="0 0 10.56504 10.61412"
   height="10.61412mm"
   width="10.56504mm"
   inkscape:version="0.92.2 5c3e80d, 2017-08-06"
   sodipodi:docname="navigate.svg">
  <sodipodi:namedview
     inkscape:window-maximized="1"
     inkscape:window-y="1"
     inkscape:window-x="0"
     inkscape:window-height="811"
     inkscape:window-width="1440"
     showgrid="true"
     inkscape:current-layer="layer1"
     inkscape:document-units="mm"
     inkscape:cy="20.058176"
     inkscape:cx="19.96543"
     inkscape:zoom="14.906636"
     inkscape:pageshadow="2"
     inkscape:pageopacity="0.0"
     borderopacity="1.0"
     bordercolor="#666666"
     pagecolor="#ffffff"
     id="base"
     showguides="false"
     inkscape:guide-bbox="true"
     fit-margin-top="0"
     fit-margin-left="0"
     fit-margin-right="0"
     fit-margin-bottom="0"
     showborder="true">
    <inkscape:grid
       type="xygrid"
       id="grid9870"
       originx="-1.7921401"
       originy="-285.60455" />
    <sodipodi:guide
       position="-8.4067238,-5.1462073"
       orientation="1,0"
       id="guide9872"
       inkscape:locked="false" />
    <sodipodi:guide
       position="88.166198,-5.1462073"
       orientation="0,1"
       id="guide9874"
       inkscape:locked="false" />
  </sodipodi:namedview>
  <defs
     id="defs546" />
  <metadata
     id="metadata549">
    <rdf:RDF>
      <cc:Work
         rdf:about="">
        <dc:format>image/svg+xml</dc:format>
        <dc:type
           rdf:resource="http://purl.org/dc/dcmitype/StillImage" />
        <dc:title></dc:title>
      </cc:Work>
    </rdf:RDF>
  </metadata>
  <g
     id="layer1"
     inkscape:groupmode="layer"
     inkscape:label="Layer 1"
     transform="translate(-1.79214,-0.78134326)">
    <path
       style="fill:#646464;stroke-width:0.1067176;fill-opacity:1"
       d="M 6.936822,11.325339 C 6.895808,11.256 6.269073,9.2601793 6.046089,8.4887915 5.998028,8.3225418 5.866033,8.3668492 4.976429,8.8478428 4.280827,9.223947 3.927057,9.3620028 3.85179,9.2867352 3.77652,9.2114672 3.91356,8.8596046 4.287413,8.1681466 L 4.832848,7.1593641 3.739363,6.8188583 C 3.137948,6.6315787 2.453789,6.4171052 2.219011,6.3422532 1.984232,6.2674008 1.79214,6.1421227 1.79214,6.0638666 1.79214,5.9856066 1.984232,5.860332 2.219011,5.7854757 2.453789,5.7106227 3.137948,5.4961502 3.739363,5.3088744 L 4.832848,4.9683691 4.287413,3.9595863 C 3.921163,3.2822015 3.777294,2.9154908 3.849475,2.8433087 3.921655,2.7711267 4.289436,2.9150427 4.969,3.2813866 L 5.981033,3.8269553 6.266975,2.8910967 C 6.830682,1.0461212 6.932752,0.78134326 7.080278,0.78134326 c 0.09676,0 0.301349,0.49670374 0.591623,1.43631734 0.244041,0.7899737 0.494509,1.4532497 0.556591,1.4739411 0.06208,0.020691 0.468264,-0.1574244 0.902635,-0.3958197 0.784892,-0.4307734 1.145064,-0.5328714 1.145064,-0.3245936 0,0.059868 -0.214065,0.5350736 -0.475693,1.0560101 l -0.475694,0.9471644 0.92924,0.283876 c 1.82186,0.5565637 2.103136,0.6645628 2.103136,0.807511 0,0.091523 -0.554874,0.322113 -1.519365,0.6314119 L 9.318444,7.1843994 9.840808,8.1545218 c 0.319035,0.5924975 0.489766,1.0228754 0.43861,1.1056452 C 10.216528,9.3619305 9.952013,9.269847 9.217507,8.8904877 8.679517,8.6126296 8.207962,8.4166736 8.1696,8.4550357 8.13125,8.4933957 7.904935,9.155734 7.666701,9.9268918 7.274108,11.197725 7.080629,11.568433 6.936822,11.325339 Z M 7.074663,8.3863792 V 6.3334683 L 6.580949,6.8271793 6.087237,7.3208902 6.554272,8.8797028 c 0.256868,0.8573441 0.479037,1.5589852 0.49371,1.5591952 0.01468,2.14e-4 0.0267,-0.9234189 0.0267,-2.0525188 z M 10.169472,6.4933933 11.50344,6.0754989 9.42691,6.0696889 7.350376,6.0638789 7.82459,6.547067 C 8.371352,7.1041788 8.207869,7.107918 10.169472,6.493406 Z M 6.311568,5.5703776 5.818079,5.0768885 4.23198,5.5643516 l -1.5861,0.4874628 2.07959,0.00601 2.079588,0.00601 z M 7.845962,4.070828 C 7.72283,3.6702851 7.50117,2.9583822 7.353381,2.4888275 l -0.268707,-0.8537421 -0.005,2.0795875 -0.005,2.0795915 0.497587,-0.4975867 0.497587,-0.4975871 z"
       id="path9868"
       inkscape:connector-curvature="0" />
  </g>
</svg>
