<?xml version="1.0" encoding="UTF-8" standalone="no"?>
<!-- Created with Inkscape (http://www.inkscape.org/) -->

<svg
   xmlns:dc="http://purl.org/dc/elements/1.1/"
   xmlns:cc="http://creativecommons.org/ns#"
   xmlns:rdf="http://www.w3.org/1999/02/22-rdf-syntax-ns#"
   xmlns:svg="http://www.w3.org/2000/svg"
   xmlns="http://www.w3.org/2000/svg"
   xmlns:sodipodi="http://sodipodi.sourceforge.net/DTD/sodipodi-0.dtd"
   xmlns:inkscape="http://www.inkscape.org/namespaces/inkscape"
   id="svg552"
   version="1.1"
   viewBox="0 0 10.596311 10.596307"
   height="10.596308mm"
   width="10.596311mm"
   inkscape:version="0.92.2 5c3e80d, 2017-08-06"
   sodipodi:docname="setting.svg">
  <sodipodi:namedview
     inkscape:window-maximized="1"
     inkscape:window-y="1"
     inkscape:window-x="0"
     inkscape:window-height="811"
     inkscape:window-width="1440"
     showgrid="true"
     inkscape:current-layer="layer1"
     inkscape:document-units="mm"
     inkscape:cy="-367.60188"
     inkscape:cx="-164.55387"
     inkscape:zoom="0.53273008"
     inkscape:pageshadow="2"
     inkscape:pageopacity="0.0"
     borderopacity="1.0"
     bordercolor="#666666"
     pagecolor="#ffffff"
     id="base"
     showguides="false"
     inkscape:guide-bbox="true"
     fit-margin-top="0"
     fit-margin-left="0"
     fit-margin-right="0"
     fit-margin-bottom="0"
     showborder="true">
    <inkscape:grid
       type="xygrid"
       id="grid9870"
       originx="-1.7765048"
       originy="-285.49371" />
    <sodipodi:guide
       position="-8.3910878,-5.035444"
       orientation="1,0"
       id="guide9872"
       inkscape:locked="false" />
    <sodipodi:guide
       position="88.181825,-5.035444"
       orientation="0,1"
       id="guide9874"
       inkscape:locked="false" />
  </sodipodi:namedview>
  <defs
     id="defs546" />
  <metadata
     id="metadata549">
    <rdf:RDF>
      <cc:Work
         rdf:about="">
        <dc:format>image/svg+xml</dc:format>
        <dc:type
           rdf:resource="http://purl.org/dc/dcmitype/StillImage" />
        <dc:title></dc:title>
      </cc:Work>
    </rdf:RDF>
  </metadata>
  <g
     id="layer1"
     inkscape:groupmode="layer"
     inkscape:label="Layer 1"
     transform="translate(-1.7765048,-0.90991932)">
    <path
       style="fill:#646464;fill-opacity:1;stroke-width:0.11036832"
       d="m 6.3624486,11.257899 c -0.02955,-0.13658 -0.09406,-0.471823 -0.143347,-0.744987 -0.07548,-0.418333 -0.150013,-0.5262807 -0.472619,-0.6844976 -0.55407,-0.2717414 -0.761495,-0.243727 -1.36328,0.1841256 -0.410718,0.292011 -0.58417,0.357915 -0.732729,0.278408 -0.314804,-0.168479 -0.77812,-0.7790887 -0.697054,-0.9186556 0.04109,-0.070738 0.21525,-0.3362276 0.387027,-0.5899734 C 3.6987916,8.252976 3.7154306,8.0694223 3.4536976,7.5329673 3.2868546,7.1910085 3.1941426,7.1326253 2.6457496,7.0242021 2.3050366,6.9568384 1.9700746,6.8669948 1.9013896,6.8245424 1.8327046,6.782094 1.7765076,6.4804807 1.7765076,6.1542896 c 0,-0.6572168 -0.0085,-0.6499919 0.915033,-0.7804233 0.472367,-0.066713 0.551799,-0.1198694 0.744986,-0.498545 0.2951,-0.5784442 0.275813,-0.7358725 -0.16633,-1.3577575 -0.29201,-0.4107204 -0.357915,-0.5841714 -0.278409,-0.7327275 0.168478,-0.3148073 0.779088,-0.7781207 0.918656,-0.6970537 0.07074,0.041088 0.336227,0.2152485 0.589974,0.3870268 0.529054,0.3581482 0.713613,0.3750132 1.246065,0.1138751 0.322606,-0.1582213 0.397137,-0.2661646 0.472619,-0.6845019 0.19186,-1.06333612 0.135783,-0.99331499 0.795491,-0.99331499 0.329125,0 0.633141,0.0561975 0.67559,0.12488349 0.04245,0.068686 0.132296,0.4036456 0.199658,0.7443615 0.108423,0.5483891 0.166805,0.6411027 0.508767,0.8079462 0.53508,0.2610629 0.779848,0.2440437 1.220201,-0.084851 0.6765254,-0.505286 0.7202044,-0.5132992 1.0920244,-0.2004359 0.578429,0.4867192 0.595724,0.6122658 0.167345,1.2147914 -0.427853,0.6017831 -0.455869,0.8092097 -0.184127,1.3632804 0.158221,0.3226037 0.266166,0.3971383 0.684501,0.4726156 1.063338,0.1918636 0.993315,0.1357874 0.993315,0.7954946 0,0.3440655 -0.05591,0.6329605 -0.131528,0.6796969 -0.07234,0.044709 -0.407584,0.1364215 -0.744986,0.2038061 -0.539116,0.1076721 -0.636223,0.1688291 -0.801302,0.5046604 -0.260507,0.5299639 -0.243215,0.7759728 0.08547,1.2160509 0.517843,0.6933374 0.521445,0.7214064 0.147255,1.1475861 -0.418731,0.4769087 -0.680534,0.4888877 -1.2510074,0.05725 -0.492338,-0.3725227 -0.729658,-0.3966834 -1.273017,-0.1295884 -0.335831,0.1650791 -0.396988,0.2621851 -0.504659,0.8013001 -0.06739,0.3374 -0.159098,0.672643 -0.203807,0.744984 -0.04674,0.07563 -0.335631,0.131527 -0.679698,0.131527 -0.531073,0 -0.604456,-0.02795 -0.652144,-0.248327 z m 1.98422,-2.4865429 c 0.513359,-0.264429 1.047952,-0.8048469 1.334219,-1.3487555 0.281763,-0.5353495 0.281763,-1.8927531 0,-2.4281024 -0.283633,-0.5389077 -0.816735,-1.080643 -1.337465,-1.3591257 -0.338429,-0.180993 -0.63468,-0.2361013 -1.269235,-0.2361013 -0.940474,0 -1.470304,0.216504 -2.05705,0.8405662 -0.591102,0.628697 -0.752961,1.0518982 -0.752961,1.9687096 0,0.9168872 0.161964,1.3403053 0.752961,1.9684553 0.349052,0.3709965 0.774075,0.6373862 1.283757,0.8046176 0.455221,0.1493653 1.570043,0.034792 2.045774,-0.2102638 z m -1.27049,-0.7078034 c -1.202495,-8.187e-4 -1.893465,-0.8471657 -1.96719,-1.825906 -0.07507,-0.9965769 0.721223,-1.9205384 1.909072,-1.9439316 1.278088,-0.025153 2.073407,0.7173186 2.06368,1.9030727 -0.0093,1.1386681 -0.803066,1.8676538 -2.005562,1.8667649 z m 0.610051,-1.2429606 c 0.170766,-0.1707692 0.270905,-0.3970052 0.270905,-0.6120451 0,-0.2150357 -0.100139,-0.4412758 -0.270905,-0.6120405 -0.170766,-0.1707688 -0.397004,-0.2709033 -0.612042,-0.2709033 -0.215039,0 -0.441277,0.1001345 -0.612043,0.2709033 -0.170766,0.1707647 -0.270904,0.3970048 -0.270904,0.6120405 0,0.2150399 0.100138,0.4412759 0.270904,0.6120451 0.170766,0.1707647 0.397004,0.2709034 0.612043,0.2709034 0.215038,0 0.441276,-0.1001387 0.612042,-0.2709034 z"
       id="path9826"
       inkscape:connector-curvature="0"
       sodipodi:nodetypes="ccccccccccscccccccssccccccccsccsccccscsccsccscsscczssszcscscscsc" />
  </g>
</svg>
